<svg xmlns="http://www.w3.org/2000/svg" version="1.0" width="780.000000pt" height="415.000000pt" viewBox="0 0 780.000000 415.000000" preserveAspectRatio="xMidYMid meet">

<g transform="translate(0.000000,415.000000) scale(0.100000,-0.100000)" fill="#e4c590" stroke="none">
<path d="M3489 4127 c-67 -19 -127 -58 -186 -120 -49 -51 -137 -176 -130 -184 2 -1 48 2 103 7 54 5 161 10 236 10 l137 0 30 -37 c17 -21 31 -41 31 -45 0 -5 -79 -8 -175 -8 -195 0 -321 -11 -470 -42 -213 -43 -445 -139 -614 -252 -46 -31 -85 -56 -87 -56 -5 0 -82 -69 -158 -140 -109 -103 -215 -233 -308 -375 -85 -129 -191 -328 -181 -339 10 -10 3703 -7 3703 3 0 5 -27 46 -61 90 l-61 81 -1325 0 -1324 0 6 23 c3 12 30 72 60 132 66 132 164 257 290 368 91 81 269 204 363 251 28 14 52 28 52 30 0 6 -149 -40 -227 -69 -237 -90 -491 -264 -649 -446 -66 -76 -163 -213 -185 -261 l-12 -28 -154 0 c-118 0 -153 3 -153 13 0 7 28 59 63 115 278 455 731 723 1302 772 522 45 1103 -158 1652 -577 85 -64 85 -65 49 -22 -80 96 -287 272 -445 378 -223 151 -478 262 -713 312 -53 11 -60 16 -84 56 -14 25 -24 47 -21 49 2 3 26 0 52 -6 26 -6 50 -9 52 -6 3 3 -16 37 -41 75 -127 190 -285 284 -417 248z" fill="#e4c590"/>
<path d="M1185 2450 c81 -39 249 -94 365 -119 238 -51 246 -51 1526 -51 656 0 1194 -3 1194 -8 0 -4 -24 -22 -52 -39 -29 -17 -102 -68 -163 -113 -137 -102 -175 -124 -249 -145 -75 -22 -168 -15 -275 21 -71 24 -224 104 -237 125 -3 5 -10 9 -17 9 -19 0 74 -89 147 -141 125 -88 253 -120 391 -95 142 24 219 64 499 256 107 73 205 44 298 -89 l16 -22 46 28 c25 15 46 31 46 35 0 15 -85 111 -120 136 -22 15 -39 30 -40 35 0 4 157 7 350 7 263 0 377 4 462 16 178 25 456 101 589 162 l44 20 -2440 0 -2440 0 60 -28z" fill="#e4c590"/>
<path d="M2247 2171 c-21 -23 -42 -62 -51 -92 -17 -55 -22 -184 -8 -193 4 -2 32 11 61 30 137 86 301 130 446 121 93 -6 165 -22 165 -36 0 -5 -32 -12 -71 -15 -91 -9 -219 -46 -295 -86 -32 -16 -62 -30 -66 -30 -4 0 -8 19 -10 43 l-3 42 -17 -32 c-22 -40 -23 -112 -3 -182 l16 -52 52 44 c228 192 458 207 673 46 95 -70 228 -279 315 -492 38 -95 33 -50 -10 80 -137 413 -350 668 -621 742 -141 39 -351 23 -493 -38 -74 -32 -81 -30 -72 26 4 26 14 61 22 76 22 43 10 42 -30 -2z" fill="#e4c590"/>
<path d="M4380 2003 l0 -68 -73 -47 c-186 -122 -305 -276 -351 -454 -31 -122 -15 -325 36 -443 10 -24 16 -46 14 -48 -14 -15 -253 -86 -349 -104 -118 -23 -304 -30 -427 -17 l-65 7 73 -24 c112 -36 242 -55 383 -55 191 0 336 24 517 87 41 13 75 23 76 21 2 -1 22 -46 46 -98 90 -202 228 -419 379 -594 79 -91 142 -155 125 -126 -5 9 -36 56 -70 105 -172 254 -279 511 -344 821 -38 185 -48 199 -143 199 -34 0 -78 -3 -98 -8 l-37 -7 -12 66 c-25 130 4 277 78 399 58 96 190 220 310 291 2 1 -6 20 -16 41 -11 21 -23 56 -27 76 -12 62 -25 52 -25 -20z" fill="#e4c590"/>
<path d="M1263 1505 c-20 -8 -39 -28 -49 -48 -52 -110 97 -193 196 -110 25 20 30 32 30 67 0 85 -88 130 -177 91z" fill="#e4c590"/>
<path d="M5591 1013 c-51 -258 -95 -480 -98 -495 l-5 -28 94 0 94 0 48 232 c27 128 52 243 57 255 20 53 145 101 214 82 48 -13 70 -44 69 -93 -1 -32 -54 -301 -89 -453 -5 -23 -4 -23 89 -23 82 0 95 2 100 18 3 9 26 120 52 245 50 248 51 280 11 352 -16 29 -38 48 -77 68 -51 27 -62 28 -150 25 -69 -3 -108 -10 -143 -26 l-47 -21 5 22 c7 30 55 290 55 300 0 4 -42 7 -93 7 l-92 0 -94 -467z" fill="#e4c590"/>
<path d="M7565 1471 c-107 -27 -211 -136 -240 -253 -7 -26 -11 -28 -60 -28 -59 0 -59 1 -71 -82 l-6 -48 51 0 c35 0 51 -4 51 -13 0 -37 -121 -610 -134 -636 -17 -32 -57 -64 -100 -81 -29 -11 -29 -17 0 -88 13 -33 15 -34 56 -27 54 9 122 38 165 71 67 51 79 87 146 440 l63 329 89 3 c49 2 93 6 96 10 4 4 10 33 14 65 l6 57 -91 0 c-90 0 -91 0 -84 23 25 81 78 129 144 129 3 0 26 -3 52 -6 l47 -7 15 52 c9 29 16 58 16 65 0 28 -146 44 -225 25z" fill="#e4c590"/>
<path d="M5152 1460 c-135 -18 -232 -67 -328 -164 -125 -128 -180 -275 -172 -469 3 -93 7 -108 38 -165 53 -99 140 -160 261 -182 111 -20 278 4 357 52 31 19 32 21 32 93 l0 74 -57 -30 c-133 -68 -298 -59 -374 21 -143 150 -29 500 197 602 70 32 188 31 262 -1 29 -13 54 -22 56 -20 11 13 47 142 43 153 -11 27 -208 50 -315 36z" fill="#e4c590"/>
<path d="M210 1445 c0 -2 -43 -212 -95 -467 -52 -254 -95 -468 -95 -475 0 -10 24 -13 95 -13 90 0 95 1 100 23 3 12 23 109 45 216 22 106 43 197 46 202 6 10 407 13 416 4 3 -3 -14 -101 -38 -218 -24 -117 -44 -216 -44 -220 0 -4 44 -6 97 -5 l97 3 92 445 c50 245 94 460 98 478 l8 32 -99 0 -99 0 -28 -137 c-15 -76 -32 -159 -38 -185 l-10 -48 -212 0 -213 0 37 185 37 185 -98 0 c-55 0 -99 -2 -99 -5z" fill="#e4c590"/>
<path d="M1886 1180 c-27 -11 -54 -24 -60 -30 -18 -18 -27 -11 -20 15 l6 25 -94 0 -94 0 -69 -327 c-37 -181 -70 -338 -73 -351 -4 -23 -4 -23 89 -20 l94 3 42 200 c49 232 54 246 106 302 61 66 142 83 216 45 l40 -21 27 81 c22 66 24 82 13 89 -26 16 -171 9 -223 -11z" fill="#e4c590"/>
<path d="M2450 1186 c-208 -58 -332 -228 -317 -432 9 -117 58 -193 161 -246 74 -39 352 -35 385 6 5 6 12 46 16 89 l8 79 -40 -20 c-67 -35 -150 -54 -196 -47 -87 15 -137 59 -145 131 -5 46 -4 47 19 40 13 -4 65 -9 114 -12 226 -15 409 83 423 225 12 132 -88 202 -287 200 -53 0 -116 -6 -141 -13z m212 -138 c58 -22 43 -78 -30 -111 -35 -16 -73 -22 -150 -25 -57 -2 -108 0 -113 5 -22 22 84 122 151 141 38 11 99 6 142 -10z" fill="#e4c590"/>
<path d="M6653 1185 c-124 -34 -227 -114 -278 -214 -36 -71 -52 -188 -36 -262 23 -108 102 -192 206 -220 49 -14 268 -6 311 10 30 12 32 15 41 94 6 45 9 83 8 85 -1 1 -25 -9 -52 -23 -106 -53 -214 -54 -279 -2 -30 23 -54 74 -54 112 0 24 2 25 43 18 23 -5 87 -8 142 -8 227 1 374 97 375 244 0 74 -26 112 -98 148 -50 25 -70 28 -167 30 -73 2 -128 -2 -162 -12z m217 -139 c57 -26 22 -93 -63 -120 -52 -17 -232 -22 -241 -7 -3 5 13 30 35 55 41 46 79 72 129 86 30 9 106 2 140 -14z" fill="#e4c590"/>
<path d="M1111 1153 c-27 -102 -29 -93 29 -93 49 0 52 -1 47 -22 -4 -13 -29 -133 -57 -268 -28 -135 -53 -253 -56 -262 -5 -16 4 -18 90 -18 91 0 96 1 101 23 3 12 34 161 70 332 35 171 67 318 69 328 4 16 -8 17 -140 17 l-143 0 -10 -37z" fill="#e4c590"/>
<path d="M3382 537 c-43 -46 -54 -142 -28 -250 17 -74 24 -80 24 -24 0 57 16 87 46 87 28 0 60 -33 81 -82 20 -49 20 -151 0 -172 -21 -21 -19 -26 13 -26 60 0 100 91 86 197 -5 41 -3 53 7 53 16 0 138 17 187 25 31 6 33 9 27 33 -10 40 -17 44 -66 33 -24 -5 -74 -12 -110 -16 l-66 -7 -30 54 c-36 64 -94 118 -127 118 -12 0 -32 -11 -44 -23z" fill="#e4c590"/>
</g>
</svg>